<svg id="Dropmints_Logo" data-name="Dropmints Logo" xmlns="http://www.w3.org/2000/svg" viewBox="0 0 1070 360.1"><defs><style>.cls-1{fill:#fff;}</style></defs><title>dropmints-logo-monochrome-solid-negative_rgb</title><path class="cls-1" d="M361.6,135H330v90h31.6q43.2,0,43.2-45.1T361.6,135Zm20.8,69.6c-4.8,5.2-12.2,7.9-22.3,7.9H344.8V147.4h15.3c10.1,0,17.5,2.6,22.3,7.8s7.1,13.5,7.1,24.7S387.1,199.4,382.4,204.6Zm72.4-48.8a22.9,22.9,0,0,1,9.2,1.7v11.4a58.4,58.4,0,0,0-9.1-.6,98.1,98.1,0,0,0-16.7,1.4V225H424V163.5c2.6-1.6,6.8-3.2,12.9-5A62.2,62.2,0,0,1,454.8,155.8Zm50.3-.2c-21.5,0-32.3,11.9-32.3,35.5q0,17.6,8.1,26.7c5.5,6.2,13.6,9.2,24.4,9.2s18.5-3.1,24.1-9.3,8.5-15.1,8.5-26.6-2.7-20.3-8.2-26.3S516,155.6,505.1,155.6Zm0,59.4c-6.3,0-11-2-13.9-6.1s-4.4-10-4.4-17.8,1.4-13.6,4.2-17.6,7.6-6,14.1-6,11.2,2,14.2,5.9,4.5,9.8,4.5,17.7C523.8,207.1,517.6,215,505.1,215Zm81.3-59.4c-8.1,0-15,1.2-20.8,3.6s-8.7,6-8.7,11.2v81.7h14v-29a30.3,30.3,0,0,0,8.5,2.8,38.2,38.2,0,0,0,8.4,1c9.9,0,17.5-3.1,23-9.3s8.3-14.6,8.3-25.3c0-12.9-3-22.3-9-28S596.2,155.6,586.4,155.6ZM599.7,209c-3.3,3.9-8.1,5.9-14.5,5.9a27.7,27.7,0,0,1-14.3-3.9V173.5c0-1.8,1.4-3.1,4.1-4.1a32.9,32.9,0,0,1,10.9-1.5c7,0,11.9,2.1,14.6,6.4s4.1,10.1,4.1,17.8S603,205.1,599.7,209Zm133.9-47.3c4.3,4,6.5,10.1,6.5,18.5V225H725.9V182.1c0-9.5-5.3-14.2-16-14.2a23.8,23.8,0,0,0-13.1,3.7,36,36,0,0,1,.9,8.6V225H683.6V182.1c0-9.5-5.4-14.2-16.1-14.2a41.5,41.5,0,0,0-14.3,2.6V225H639V162.8a62.3,62.3,0,0,1,14.8-5.1,76.4,76.4,0,0,1,16.7-1.9c8.8,0,15.4,1.7,19.7,5.1a52.9,52.9,0,0,1,22.6-5.1C722.3,155.8,729.2,157.8,733.6,161.7Zm30-28h15.1v12.8H763.6Zm14.5,24,.2,67.3H764V157.7Zm76.9,4c4.5,4,6.7,10.1,6.7,18.5V225H847.5V182.1c0-9.5-5.3-14.2-16-14.2a42.9,42.9,0,0,0-14.7,2.6V225H802.6V162.8a62.3,62.3,0,0,1,14.8-5.1,75.7,75.7,0,0,1,16.7-1.9C843.5,155.8,850.5,157.8,855,161.7Zm125,43.9c-.1,7.2-2.7,12.5-7.9,16.1s-11.5,5.3-18.9,5.3a45,45,0,0,1-11.7-1.3,65.3,65.3,0,0,1-10.6-4.1V208.3a60.8,60.8,0,0,0,11.1,5.6,32.5,32.5,0,0,0,11.2,1.8c3.8,0,6.9-.8,9.1-2.4a7.1,7.1,0,0,0,3.3-6.1,6.1,6.1,0,0,0-2.7-5.4,43.2,43.2,0,0,0-8.4-3.8l-3.1-1.1q-9.4-2.2-15-6.6c-3.8-2.9-5.6-7.4-5.6-13.5s1.2-8.7,3.8-11.8a20.6,20.6,0,0,1,9.5-6.9,32.3,32.3,0,0,1,12-2.2,37.6,37.6,0,0,1,11,1.6,61.9,61.9,0,0,1,9.7,4.1v12.1c-4.7-2.4-8.2-4.1-10.6-5a24.3,24.3,0,0,0-8.6-1.3,17.8,17.8,0,0,0-8.9,2,6.4,6.4,0,0,0-3.4,5.7,6.7,6.7,0,0,0,3.4,6.2,43.6,43.6,0,0,0,10.5,4A87.8,87.8,0,0,1,970,189a17.9,17.9,0,0,1,7,5.7C979,197.4,980,201,980,205.6Zm-75.9-48.3h14.8V169H904.1v56H889.5V169H875.9V157.3h13.6V138.4h14.6ZM270,180a89.9,89.9,0,0,1-86.9,89.9A60,60,0,1,0,123.4,190,89.7,89.7,0,0,1,90,120a88.4,88.4,0,0,1,8.8-38.8A29.9,29.9,0,0,0,120,90h60A90,90,0,0,1,270,180ZM122,194.7c.4-1.6.9-3.2,1.4-4.7h.1a89.1,89.1,0,0,0,48.6,19.7h1l2.9.2h4a30,30,0,0,1,30,30,27.1,27.1,0,0,1-.1,2.9c-.1.3-.1.6-.2.9a13.8,13.8,0,0,1-.3,2,2.9,2.9,0,0,1-.2.9c-.1.6-.3,1.2-.4,1.8a10.4,10.4,0,0,1-.4,1,11.5,11.5,0,0,1-.6,1.7,3.6,3.6,0,0,1-.4.9c-.2.6-.5,1.1-.7,1.6a4.1,4.1,0,0,0-.5.9l-.9,1.5-.6.9-1,1.4-.7.8-1.1,1.2-.8.9-1.1,1.1-1,.8-1.1.9-1.1.7-1.2.8-1.2.7-1.2.6-1.4.6-1.2.5-1.4.5-1.2.4-1.6.4-1.2.2-1.7.3h-5.3a59.8,59.8,0,0,1-57.7-52.3h0l-.3-3c-.1-1.5-.2-3-.2-4.6s.1-3.3.2-4.9.1-.5.1-.8A60.2,60.2,0,0,1,122,194.7Z"/></svg>